<?xml version="1.0" encoding="UTF-8" standalone="no"?>
<!DOCTYPE svg PUBLIC "-//W3C//DTD SVG 1.1//EN"
 "http://www.w3.org/Graphics/SVG/1.1/DTD/svg11.dtd">
<!-- Generated by graphviz version 8.0.5 (20230430.1635)
 -->
<!-- Title: G Pages: 1 -->
<svg width="422pt" height="260pt"
 viewBox="0.00 0.00 422.00 260.00" xmlns="http://www.w3.org/2000/svg" xmlns:xlink="http://www.w3.org/1999/xlink">
<g id="graph0" class="graph" transform="scale(1 1) rotate(0) translate(4 256)">
<title>G</title>
<polygon fill="white" stroke="none" points="-4,4 -4,-256 418,-256 418,4 -4,4"/>
<!-- node0 -->
<g id="node1" class="node">
<title>node0</title>
<path fill="palegreen" stroke="black" d="M248.75,-252C248.75,-252 201.25,-252 201.25,-252 195.25,-252 189.25,-246 189.25,-240 189.25,-240 189.25,-228 189.25,-228 189.25,-222 195.25,-216 201.25,-216 201.25,-216 248.75,-216 248.75,-216 254.75,-216 260.75,-222 260.75,-228 260.75,-228 260.75,-240 260.75,-240 260.75,-246 254.75,-252 248.75,-252"/>
<text text-anchor="start" x="197.25" y="-229.95" font-family="Times,serif" font-size="14.00">X</text>
<text text-anchor="start" x="207" y="-229.95" font-family="Times,serif" baseline-shift="sub" font-size="14.00">1</text>
<text text-anchor="start" x="213" y="-229.95" font-family="Times,serif" font-size="14.00"> &lt; 3.00</text>
</g>
<!-- node1 -->
<g id="node2" class="node">
<title>node1</title>
<path fill="palegreen" stroke="black" d="M185.75,-180C185.75,-180 138.25,-180 138.25,-180 132.25,-180 126.25,-174 126.25,-168 126.25,-168 126.25,-156 126.25,-156 126.25,-150 132.25,-144 138.25,-144 138.25,-144 185.75,-144 185.75,-144 191.75,-144 197.75,-150 197.75,-156 197.75,-156 197.75,-168 197.75,-168 197.75,-174 191.75,-180 185.75,-180"/>
<text text-anchor="start" x="134.25" y="-157.95" font-family="Times,serif" font-size="14.00">X</text>
<text text-anchor="start" x="144" y="-157.95" font-family="Times,serif" baseline-shift="sub" font-size="14.00">0</text>
<text text-anchor="start" x="150" y="-157.95" font-family="Times,serif" font-size="14.00"> &lt; 2.77</text>
</g>
<!-- node0&#45;&gt;node1 -->
<g id="edge1" class="edge">
<title>node0&#45;&gt;node1</title>
<path fill="none" stroke="black" d="M209.43,-215.7C201.95,-207.39 192.85,-197.28 184.63,-188.14"/>
<polygon fill="black" stroke="black" points="187.69,-186.2 178.39,-181.1 182.48,-190.88 187.69,-186.2"/>
</g>
<!-- node2 -->
<g id="node3" class="node">
<title>node2</title>
<path fill="palegreen" stroke="black" d="M284.75,-180C284.75,-180 237.25,-180 237.25,-180 231.25,-180 225.25,-174 225.25,-168 225.25,-168 225.25,-156 225.25,-156 225.25,-150 231.25,-144 237.25,-144 237.25,-144 284.75,-144 284.75,-144 290.75,-144 296.75,-150 296.75,-156 296.75,-156 296.75,-168 296.75,-168 296.75,-174 290.75,-180 284.75,-180"/>
<text text-anchor="start" x="233.25" y="-157.95" font-family="Times,serif" font-size="14.00">X</text>
<text text-anchor="start" x="243" y="-157.95" font-family="Times,serif" baseline-shift="sub" font-size="14.00">0</text>
<text text-anchor="start" x="249" y="-157.95" font-family="Times,serif" font-size="14.00"> &lt; 7.00</text>
</g>
<!-- node0&#45;&gt;node2 -->
<g id="edge2" class="edge">
<title>node0&#45;&gt;node2</title>
<path fill="none" stroke="black" d="M233.9,-215.7C237.91,-207.9 242.74,-198.51 247.2,-189.83"/>
<polygon fill="black" stroke="black" points="250.74,-191.6 252.2,-181.1 244.52,-188.4 250.74,-191.6"/>
</g>
<!-- node3 -->
<g id="node4" class="node">
<title>node3</title>
<ellipse fill="yellow" stroke="black" cx="72" cy="-90" rx="18" ry="18"/>
<text text-anchor="middle" x="72" y="-84.95" font-family="Times,serif" font-size="14.00">0</text>
</g>
<!-- node1&#45;&gt;node3 -->
<g id="edge3" class="edge">
<title>node1&#45;&gt;node3</title>
<path fill="none" stroke="black" d="M139.75,-143.7C125.92,-132.94 108.19,-119.15 94.34,-108.37"/>
<polygon fill="black" stroke="black" points="96.92,-105.17 86.87,-101.79 92.62,-110.69 96.92,-105.17"/>
</g>
<!-- node4 -->
<g id="node5" class="node">
<title>node4</title>
<path fill="palegreen" stroke="black" d="M185.75,-108C185.75,-108 138.25,-108 138.25,-108 132.25,-108 126.25,-102 126.25,-96 126.25,-96 126.25,-84 126.25,-84 126.25,-78 132.25,-72 138.25,-72 138.25,-72 185.75,-72 185.75,-72 191.75,-72 197.75,-78 197.75,-84 197.75,-84 197.75,-96 197.75,-96 197.75,-102 191.75,-108 185.75,-108"/>
<text text-anchor="start" x="134.25" y="-85.95" font-family="Times,serif" font-size="14.00">X</text>
<text text-anchor="start" x="144" y="-85.95" font-family="Times,serif" baseline-shift="sub" font-size="14.00">1</text>
<text text-anchor="start" x="150" y="-85.95" font-family="Times,serif" font-size="14.00"> &lt; 1.78</text>
</g>
<!-- node1&#45;&gt;node4 -->
<g id="edge4" class="edge">
<title>node1&#45;&gt;node4</title>
<path fill="none" stroke="black" d="M162,-143.7C162,-136.24 162,-127.32 162,-118.97"/>
<polygon fill="black" stroke="black" points="165.5,-119.1 162,-109.1 158.5,-119.1 165.5,-119.1"/>
</g>
<!-- node5 -->
<g id="node6" class="node">
<title>node5</title>
<ellipse fill="yellow" stroke="black" cx="261" cy="-90" rx="18" ry="18"/>
<text text-anchor="middle" x="261" y="-84.95" font-family="Times,serif" font-size="14.00">1</text>
</g>
<!-- node2&#45;&gt;node5 -->
<g id="edge5" class="edge">
<title>node2&#45;&gt;node5</title>
<path fill="none" stroke="black" d="M261,-143.7C261,-136.24 261,-127.32 261,-118.97"/>
<polygon fill="black" stroke="black" points="264.5,-119.1 261,-109.1 257.5,-119.1 264.5,-119.1"/>
</g>
<!-- node6 -->
<g id="node7" class="node">
<title>node6</title>
<path fill="palegreen" stroke="black" d="M365.75,-108C365.75,-108 318.25,-108 318.25,-108 312.25,-108 306.25,-102 306.25,-96 306.25,-96 306.25,-84 306.25,-84 306.25,-78 312.25,-72 318.25,-72 318.25,-72 365.75,-72 365.75,-72 371.75,-72 377.75,-78 377.75,-84 377.75,-84 377.75,-96 377.75,-96 377.75,-102 371.75,-108 365.75,-108"/>
<text text-anchor="start" x="314.25" y="-85.95" font-family="Times,serif" font-size="14.00">X</text>
<text text-anchor="start" x="324" y="-85.95" font-family="Times,serif" baseline-shift="sub" font-size="14.00">0</text>
<text text-anchor="start" x="330" y="-85.95" font-family="Times,serif" font-size="14.00"> &lt; 9.00</text>
</g>
<!-- node2&#45;&gt;node6 -->
<g id="edge6" class="edge">
<title>node2&#45;&gt;node6</title>
<path fill="none" stroke="black" d="M281.02,-143.7C290.86,-135.2 302.87,-124.81 313.63,-115.51"/>
<polygon fill="black" stroke="black" points="315.65,-117.53 320.93,-108.35 311.07,-112.24 315.65,-117.53"/>
</g>
<!-- node7 -->
<g id="node8" class="node">
<title>node7</title>
<ellipse fill="#98f5ff" stroke="black" stroke-dasharray="5,2" cx="18" cy="-18" rx="18" ry="18"/>
<text text-anchor="middle" x="18" y="-12.95" font-family="Times,serif" font-size="14.00">0</text>
</g>
<!-- node3&#45;&gt;node7 -->
<g id="edge7" class="edge">
<title>node3&#45;&gt;node7</title>
<path fill="none" stroke="black" stroke-dasharray="5,2" d="M61.33,-75.17C53.86,-65.49 43.72,-52.34 35.13,-41.2"/>
<polygon fill="black" stroke="black" points="37.53,-39.58 28.65,-33.8 31.98,-43.86 37.53,-39.58"/>
</g>
<!-- node8 -->
<g id="node9" class="node">
<title>node8</title>
<ellipse fill="#98f5ff" stroke="black" stroke-dasharray="5,2" cx="72" cy="-18" rx="18" ry="18"/>
<text text-anchor="middle" x="72" y="-12.95" font-family="Times,serif" font-size="14.00">0</text>
</g>
<!-- node3&#45;&gt;node8 -->
<g id="edge8" class="edge">
<title>node3&#45;&gt;node8</title>
<path fill="none" stroke="black" stroke-dasharray="5,2" d="M72,-71.7C72,-64.24 72,-55.32 72,-46.97"/>
<polygon fill="black" stroke="black" points="75.5,-47.1 72,-37.1 68.5,-47.1 75.5,-47.1"/>
</g>
<!-- node9 -->
<g id="node10" class="node">
<title>node9</title>
<ellipse fill="yellow" stroke="black" cx="126" cy="-18" rx="18" ry="18"/>
<text text-anchor="middle" x="126" y="-12.95" font-family="Times,serif" font-size="14.00">0</text>
</g>
<!-- node4&#45;&gt;node9 -->
<g id="edge9" class="edge">
<title>node4&#45;&gt;node9</title>
<path fill="none" stroke="black" d="M153.1,-71.7C148.76,-63.25 143.46,-52.94 138.7,-43.69"/>
<polygon fill="black" stroke="black" points="141.5,-42.49 133.82,-35.2 135.28,-45.7 141.5,-42.49"/>
</g>
<!-- node10 -->
<g id="node11" class="node">
<title>node10</title>
<ellipse fill="yellow" stroke="black" cx="180" cy="-18" rx="18" ry="18"/>
<text text-anchor="middle" x="180" y="-12.95" font-family="Times,serif" font-size="14.00">1</text>
</g>
<!-- node4&#45;&gt;node10 -->
<g id="edge10" class="edge">
<title>node4&#45;&gt;node10</title>
<path fill="none" stroke="black" d="M166.45,-71.7C168.44,-63.95 170.83,-54.64 173.05,-46.02"/>
<polygon fill="black" stroke="black" points="176.62,-47.18 175.73,-36.62 169.85,-45.44 176.62,-47.18"/>
</g>
<!-- node11 -->
<g id="node12" class="node">
<title>node11</title>
<ellipse fill="#98f5ff" stroke="black" stroke-dasharray="5,2" cx="234" cy="-18" rx="18" ry="18"/>
<text text-anchor="middle" x="234" y="-12.95" font-family="Times,serif" font-size="14.00">0</text>
</g>
<!-- node5&#45;&gt;node11 -->
<g id="edge11" class="edge">
<title>node5&#45;&gt;node11</title>
<path fill="none" stroke="black" stroke-dasharray="5,2" d="M254.74,-72.76C251.6,-64.64 247.73,-54.59 244.18,-45.39"/>
<polygon fill="black" stroke="black" points="247.09,-44.22 240.23,-36.15 240.56,-46.74 247.09,-44.22"/>
</g>
<!-- node12 -->
<g id="node13" class="node">
<title>node12</title>
<ellipse fill="#98f5ff" stroke="black" stroke-dasharray="5,2" cx="288" cy="-18" rx="18" ry="18"/>
<text text-anchor="middle" x="288" y="-12.95" font-family="Times,serif" font-size="14.00">1</text>
</g>
<!-- node5&#45;&gt;node12 -->
<g id="edge12" class="edge">
<title>node5&#45;&gt;node12</title>
<path fill="none" stroke="black" stroke-dasharray="5,2" d="M267.26,-72.76C270.4,-64.64 274.27,-54.59 277.82,-45.39"/>
<polygon fill="black" stroke="black" points="281.44,-46.74 281.77,-36.15 274.91,-44.22 281.44,-46.74"/>
</g>
<!-- node13 -->
<g id="node14" class="node">
<title>node13</title>
<ellipse fill="yellow" stroke="black" cx="342" cy="-18" rx="18" ry="18"/>
<text text-anchor="middle" x="342" y="-12.95" font-family="Times,serif" font-size="14.00">1</text>
</g>
<!-- node6&#45;&gt;node13 -->
<g id="edge13" class="edge">
<title>node6&#45;&gt;node13</title>
<path fill="none" stroke="black" d="M342,-71.7C342,-64.24 342,-55.32 342,-46.97"/>
<polygon fill="black" stroke="black" points="345.5,-47.1 342,-37.1 338.5,-47.1 345.5,-47.1"/>
</g>
<!-- node14 -->
<g id="node15" class="node">
<title>node14</title>
<ellipse fill="yellow" stroke="black" cx="396" cy="-18" rx="18" ry="18"/>
<text text-anchor="middle" x="396" y="-12.95" font-family="Times,serif" font-size="14.00">1</text>
</g>
<!-- node6&#45;&gt;node14 -->
<g id="edge14" class="edge">
<title>node6&#45;&gt;node14</title>
<path fill="none" stroke="black" d="M355.35,-71.7C362.43,-62.52 371.2,-51.14 378.79,-41.31"/>
<polygon fill="black" stroke="black" points="382,-43.88 385.34,-33.82 376.46,-39.6 382,-43.88"/>
</g>
</g>
</svg>
